<svg width="3570" height="847" viewBox="0 0 3570 847" fill="none" xmlns="http://www.w3.org/2000/svg">
<rect y="12" width="819" height="822" rx="409.5" fill="url(#paint0_linear_15_9)"/>
<g filter="url(#filter0_di_15_9)">
<path d="M460.487 518.972C461.199 520.435 461.615 522.031 461.709 523.663C461.803 525.295 461.574 526.93 461.036 528.469C460.497 530.008 459.661 531.42 458.576 532.618C457.492 533.817 456.182 534.777 454.726 535.443L232.713 637.005C197.411 653.161 160.763 617.288 178.26 583.668L252.69 440.662C258.475 429.544 258.475 416.44 252.69 405.347L178.26 262.341C160.787 228.721 197.387 192.824 232.713 209.004L315.95 247.081C325.932 251.649 334.061 259.627 338.949 269.656L460.487 518.972Z" fill="white"/>
<path opacity="0.5" d="M493.31 505.117C494.67 507.908 497.028 510.052 499.892 511.104C502.756 512.155 505.905 512.032 508.682 510.76L622.57 458.683C653.81 444.392 653.81 401.641 622.57 387.35L412.458 291.237C410.236 290.221 407.762 289.933 405.375 290.414C402.987 290.895 400.803 292.12 399.12 293.923C397.438 295.726 396.339 298.017 395.975 300.485C395.611 302.953 395.999 305.475 397.086 307.708L493.31 505.117Z" fill="white"/>
</g>
<path d="M1058.84 246.217V168.909H1465.02V246.217H1307.67V678H1216.19V246.217H1058.84ZM1730.75 517.418V296.182H1820.74V678H1733.49V610.138H1729.51C1720.89 631.516 1706.72 648.999 1687 662.588C1667.45 676.177 1643.33 682.972 1614.66 682.972C1589.64 682.972 1567.52 677.42 1548.29 666.317C1529.24 655.048 1514.32 638.724 1503.55 617.347C1492.78 595.803 1487.39 569.785 1487.39 539.293V296.182H1577.38V525.372C1577.38 549.567 1584.01 568.791 1597.26 583.043C1610.52 597.295 1627.92 604.42 1649.47 604.42C1662.72 604.42 1675.57 601.189 1688 594.726C1700.42 588.263 1710.62 578.651 1718.57 565.891C1726.69 552.964 1730.75 536.807 1730.75 517.418ZM2079.82 685.457C2041.7 685.457 2008.97 677.089 1981.63 660.351C1954.45 643.613 1933.49 620.495 1918.74 590.997C1904.16 561.333 1896.86 527.195 1896.86 488.582C1896.86 449.804 1904.32 415.583 1919.24 385.919C1934.15 356.089 1955.2 332.889 1982.38 316.317C2009.72 299.579 2042.04 291.21 2079.32 291.21C2110.31 291.21 2137.74 296.928 2161.6 308.362C2185.63 319.631 2204.77 335.623 2219.02 356.338C2233.28 376.887 2241.4 400.917 2243.38 428.426H2157.38C2153.9 410.031 2145.61 394.702 2132.52 382.439C2119.59 370.01 2102.27 363.795 2080.56 363.795C2062.17 363.795 2046.01 368.767 2032.09 378.71C2018.17 388.488 2007.32 402.574 1999.53 420.969C1991.9 439.364 1988.09 461.404 1988.09 487.091C1988.09 513.109 1991.9 535.481 1999.53 554.207C2007.15 572.768 2017.84 587.103 2031.59 597.212C2045.52 607.155 2061.84 612.126 2080.56 612.126C2093.82 612.126 2105.67 609.641 2116.11 604.669C2126.72 599.532 2135.58 592.157 2142.71 582.545C2149.84 572.934 2154.72 561.25 2157.38 547.496H2243.38C2241.23 574.508 2233.28 598.455 2219.52 619.335C2205.77 640.05 2187.04 656.291 2163.34 668.057C2139.64 679.657 2111.8 685.457 2079.82 685.457ZM2483.82 685.457C2446.54 685.457 2414.22 677.254 2386.88 660.848C2359.53 644.442 2338.32 621.49 2323.24 591.991C2308.33 562.493 2300.87 528.024 2300.87 488.582C2300.87 449.141 2308.33 414.589 2323.24 384.925C2338.32 355.261 2359.53 332.226 2386.88 315.82C2414.22 299.413 2446.54 291.21 2483.82 291.21C2521.11 291.21 2553.43 299.413 2580.77 315.82C2608.11 332.226 2629.24 355.261 2644.16 384.925C2659.24 414.589 2666.78 449.141 2666.78 488.582C2666.78 528.024 2659.24 562.493 2644.16 591.991C2629.24 621.49 2608.11 644.442 2580.77 660.848C2553.43 677.254 2521.11 685.457 2483.82 685.457ZM2484.32 613.369C2504.54 613.369 2521.44 607.818 2535.03 596.714C2548.62 585.446 2558.73 570.365 2565.36 551.473C2572.15 532.581 2575.55 511.535 2575.55 488.334C2575.55 464.967 2572.15 443.838 2565.36 424.946C2558.73 405.888 2548.62 390.725 2535.03 379.456C2521.44 368.187 2504.54 362.553 2484.32 362.553C2463.61 362.553 2446.37 368.187 2432.62 379.456C2419.03 390.725 2408.83 405.888 2402.04 424.946C2395.41 443.838 2392.1 464.967 2392.1 488.334C2392.1 511.535 2395.41 532.581 2402.04 551.473C2408.83 570.365 2419.03 585.446 2432.62 596.714C2446.37 607.818 2463.61 613.369 2484.32 613.369ZM2986.14 678H2887.7L3066.93 168.909H3180.78L3360.25 678H3261.81L3125.84 273.312H3121.86L2986.14 678ZM2989.37 478.391H3257.84V552.467H2989.37V478.391ZM3519.53 168.909V678H3427.31V168.909H3519.53Z" fill="white"/>
<defs>
<filter id="filter0_di_15_9" x="143.05" y="189" width="513.65" height="490.7" filterUnits="userSpaceOnUse" color-interpolation-filters="sRGB">
<feFlood flood-opacity="0" result="BackgroundImageFix"/>
<feColorMatrix in="SourceAlpha" type="matrix" values="0 0 0 0 0 0 0 0 0 0 0 0 0 0 0 0 0 0 127 0" result="hardAlpha"/>
<feOffset dx="-10" dy="18"/>
<feGaussianBlur stdDeviation="10.35"/>
<feComposite in2="hardAlpha" operator="out"/>
<feColorMatrix type="matrix" values="0 0 0 0 0 0 0 0 0 0 0 0 0 0 0 0 0 0 0.25 0"/>
<feBlend mode="normal" in2="BackgroundImageFix" result="effect1_dropShadow_15_9"/>
<feBlend mode="normal" in="SourceGraphic" in2="effect1_dropShadow_15_9" result="shape"/>
<feColorMatrix in="SourceAlpha" type="matrix" values="0 0 0 0 0 0 0 0 0 0 0 0 0 0 0 0 0 0 127 0" result="hardAlpha"/>
<feOffset dx="7" dy="-16"/>
<feGaussianBlur stdDeviation="11.05"/>
<feComposite in2="hardAlpha" operator="arithmetic" k2="-1" k3="1"/>
<feColorMatrix type="matrix" values="0 0 0 0 1 0 0 0 0 0.136752 0 0 0 0 0 0 0 0 0.39 0"/>
<feBlend mode="normal" in2="shape" result="effect2_innerShadow_15_9"/>
</filter>
<linearGradient id="paint0_linear_15_9" x1="409.5" y1="12" x2="409.5" y2="834" gradientUnits="userSpaceOnUse">
<stop offset="0.451923" stop-color="#FF3515"/>
<stop offset="1" stop-color="#FF6200"/>
</linearGradient>
</defs>
</svg>
